<svg xmlns="http://www.w3.org/2000/svg" width="6" height="8" viewBox="0 0 6 8" fill="none">
  <path d="M2.99991 0.5C3.27647 0.5 3.49991 0.723437 3.49991 1V3.11719L5.2421 2.07188C5.4796 1.92969 5.78585 2.00625 5.92803 2.24375C6.07022 2.48125 5.99366 2.7875 5.75616 2.92969L3.97178 4L5.75772 5.07188C5.99522 5.21406 6.07178 5.52031 5.9296 5.75781C5.78741 5.99531 5.48116 6.07188 5.24366 5.92969L3.49991 4.88281V7C3.49991 7.27656 3.27647 7.5 2.99991 7.5C2.72335 7.5 2.49991 7.27656 2.49991 7V4.88281L0.75772 5.92812C0.52022 6.07031 0.21397 5.99375 0.0717829 5.75625C-0.0704046 5.51875 0.00615788 5.2125 0.243658 5.07031L2.02803 4L0.242095 2.92812C0.00459537 2.78594 -0.0719671 2.47969 0.0702204 2.24219C0.212408 2.00469 0.518658 1.92813 0.756158 2.07031L2.49991 3.11719V1C2.49991 0.723437 2.72335 0.5 2.99991 0.5Z" fill="#8D0000"/>
</svg>