<svg xmlns="http://www.w3.org/2000/svg" width="13" height="15" viewBox="0 0 13 15" fill="none">
  <g clip-path="url(#clip0_118_5376)">
    <path d="M3.5 0.5C3.98398 0.5 4.375 0.891016 4.375 1.375V2.25H7.875V1.375C7.875 0.891016 8.26602 0.5 8.75 0.5C9.23398 0.5 9.625 0.891016 9.625 1.375V2.25H10.9375C11.6621 2.25 12.25 2.83789 12.25 3.5625V4.875H0V3.5625C0 2.83789 0.587891 2.25 1.3125 2.25H2.625V1.375C2.625 0.891016 3.01602 0.5 3.5 0.5ZM0 5.75H12.25V13.1875C12.25 13.9121 11.6621 14.5 10.9375 14.5H1.3125C0.587891 14.5 0 13.9121 0 13.1875V5.75ZM8.99609 8.83984C9.25313 8.58281 9.25313 8.16719 8.99609 7.91289C8.73906 7.65859 8.32344 7.65586 8.06914 7.91289L5.47148 10.5105L4.18633 9.22539C3.9293 8.96836 3.51367 8.96836 3.25937 9.22539C3.00508 9.48242 3.00234 9.89805 3.25937 10.1523L5.00938 11.9023C5.26641 12.1594 5.68203 12.1594 5.93633 11.9023L8.99609 8.83984Z" fill="#F6F1EB"/>
  </g>
  <defs>
    <clipPath id="clip0_118_5376">
      <rect width="12.25" height="14" fill="white" transform="translate(0 0.5)"/>
    </clipPath>
  </defs>
</svg>