<svg width="129" height="52" viewBox="0 0 129 52" fill="none" xmlns="http://www.w3.org/2000/svg">
<path d="M0.595703 21V19.3984L2.13867 19.0762V8.71484L0.595703 8.39258V6.78125H2.13867H6.69922C7.96875 6.78125 9.08203 7.08073 10.0391 7.67969C11.0026 8.27865 11.7546 9.10221 12.2949 10.1504C12.8353 11.1986 13.1055 12.403 13.1055 13.7637V14.0273C13.1055 15.3685 12.8385 16.5664 12.3047 17.6211C11.7773 18.6693 11.0352 19.4961 10.0781 20.1016C9.1276 20.7005 8.01758 21 6.74805 21H0.595703ZM4.79492 18.959H6.61133C7.42513 18.959 8.11523 18.7441 8.68164 18.3145C9.24805 17.8848 9.68099 17.2988 9.98047 16.5566C10.2865 15.8145 10.4395 14.9714 10.4395 14.0273V13.7441C10.4395 12.7871 10.2865 11.9408 9.98047 11.2051C9.68099 10.4629 9.24805 9.88346 8.68164 9.4668C8.11523 9.04362 7.42513 8.83203 6.61133 8.83203H4.79492V18.959ZM14.3457 21V19.3984L15.7617 19.1055V12.3379L14.2285 12.0449V10.4336H18.418V19.1055L19.834 19.3984V21H14.3457ZM15.6641 8.11914V5.76562H18.418V8.11914H15.6641ZM25.3516 21.2051C24.5768 21.2051 23.8542 21.1335 23.1836 20.9902C22.5195 20.8405 21.8685 20.6224 21.2305 20.3359L21.2012 17.4453H23.0762L23.4473 18.9688C23.7012 19.0859 23.9681 19.1771 24.248 19.2422C24.528 19.3073 24.8438 19.3398 25.1953 19.3398C25.8659 19.3398 26.3379 19.2292 26.6113 19.0078C26.8913 18.7799 27.0312 18.4967 27.0312 18.1582C27.0312 17.8327 26.8848 17.5527 26.5918 17.3184C26.2988 17.0775 25.7324 16.8691 24.8926 16.6934C23.6361 16.4264 22.7116 16.026 22.1191 15.4922C21.5267 14.9518 21.2305 14.2617 21.2305 13.4219C21.2305 12.8359 21.3802 12.3053 21.6797 11.8301C21.9857 11.3548 22.4414 10.974 23.0469 10.6875C23.6523 10.3945 24.4108 10.248 25.3223 10.248C26.123 10.248 26.8424 10.3294 27.4805 10.4922C28.125 10.6549 28.6686 10.8633 29.1113 11.1172L29.1602 13.9102H27.2949L26.9922 12.5234C26.8034 12.3867 26.582 12.2826 26.3281 12.2109C26.0742 12.1328 25.7878 12.0938 25.4688 12.0938C24.9479 12.0938 24.541 12.2044 24.248 12.4258C23.9616 12.6471 23.8184 12.9271 23.8184 13.2656C23.8184 13.4609 23.8672 13.64 23.9648 13.8027C24.0625 13.9655 24.2513 14.1185 24.5312 14.2617C24.8177 14.3984 25.2344 14.5286 25.7812 14.6523C27.1224 14.9583 28.0892 15.3652 28.6816 15.873C29.2806 16.3809 29.5801 17.071 29.5801 17.9434C29.5801 18.9069 29.2285 19.6914 28.5254 20.2969C27.8288 20.9023 26.7708 21.2051 25.3516 21.2051ZM35.8789 21.2051C34.8763 21.2051 34.0072 20.9805 33.2715 20.5312C32.5423 20.0755 31.9792 19.4473 31.582 18.6465C31.1849 17.8457 30.9863 16.9245 30.9863 15.8828V15.5605C30.9863 14.5319 31.1849 13.6172 31.582 12.8164C31.9857 12.0156 32.5521 11.3874 33.2812 10.9316C34.0104 10.4694 34.8698 10.2383 35.8594 10.2383C36.7904 10.2383 37.5944 10.3848 38.2715 10.6777C38.9551 10.9707 39.5085 11.3223 39.9316 11.7324V14.6621H37.9199L37.5488 12.7773C37.3796 12.6081 37.1647 12.4714 36.9043 12.3672C36.6439 12.263 36.3672 12.2109 36.0742 12.2109C35.5469 12.2109 35.1009 12.3509 34.7363 12.6309C34.3783 12.9043 34.1048 13.2917 33.916 13.793C33.7337 14.2878 33.6426 14.877 33.6426 15.5605V15.8828C33.6426 16.6185 33.7402 17.2305 33.9355 17.7188C34.1309 18.2005 34.3978 18.5618 34.7363 18.8027C35.0814 19.0436 35.4655 19.1641 35.8887 19.1641C36.4225 19.1641 36.8555 19.0241 37.1875 18.7441C37.5195 18.4577 37.7409 18.0573 37.8516 17.543H40.127L40.1562 17.6016C40.0651 18.3177 39.8535 18.9492 39.5215 19.4961C39.196 20.0365 38.7337 20.4564 38.1348 20.7559C37.5423 21.0553 36.7904 21.2051 35.8789 21.2051ZM46.543 21.2051C45.5078 21.2051 44.6224 20.9772 43.8867 20.5215C43.151 20.0658 42.5846 19.4342 42.1875 18.627C41.7904 17.8132 41.5918 16.8789 41.5918 15.8242V15.6191C41.5918 14.571 41.7904 13.6432 42.1875 12.8359C42.5846 12.0286 43.151 11.3939 43.8867 10.9316C44.6224 10.4694 45.5013 10.2383 46.5234 10.2383C47.5521 10.2383 48.4342 10.4694 49.1699 10.9316C49.9056 11.3874 50.4688 12.0189 50.8594 12.8262C51.2565 13.6335 51.4551 14.5645 51.4551 15.6191V15.8242C51.4551 16.8789 51.2565 17.8132 50.8594 18.627C50.4688 19.4342 49.9056 20.0658 49.1699 20.5215C48.4342 20.9772 47.5586 21.2051 46.543 21.2051ZM46.543 19.1641C47.0573 19.1641 47.4805 19.0241 47.8125 18.7441C48.151 18.4642 48.4017 18.0736 48.5645 17.5723C48.7272 17.0645 48.8086 16.4818 48.8086 15.8242V15.6191C48.8086 14.9681 48.7272 14.3919 48.5645 13.8906C48.4017 13.3893 48.151 12.9987 47.8125 12.7188C47.474 12.4323 47.0443 12.2891 46.5234 12.2891C46.0026 12.2891 45.5729 12.4323 45.2344 12.7188C44.9023 12.9987 44.6549 13.3893 44.4922 13.8906C44.3294 14.3919 44.248 14.9681 44.248 15.6191V15.8242C44.248 16.4883 44.3294 17.071 44.4922 17.5723C44.6549 18.0736 44.9056 18.4642 45.2441 18.7441C45.5827 19.0241 46.0156 19.1641 46.543 19.1641ZM56.4648 21L53.1543 12.2207L52.0215 12.0449V10.4336H57.002V12.0449L55.8398 12.2402L57.5879 17.2891L57.832 18.1191H57.8906L58.1738 17.2891L60.0098 12.2402L58.6914 12.0449V10.4336H63.6621V12.0449L62.5 12.2402L59.1113 21H56.4648ZM69.3164 21.2051C68.3138 21.2051 67.4382 20.9837 66.6895 20.541C65.9473 20.0918 65.3711 19.4766 64.9609 18.6953C64.5508 17.9076 64.3457 17.0091 64.3457 16V15.5996C64.3457 14.5645 64.541 13.6432 64.9316 12.8359C65.3288 12.0221 65.8822 11.3874 66.5918 10.9316C67.3014 10.4694 68.1217 10.2383 69.0527 10.2383C70.0098 10.2383 70.8138 10.4303 71.4648 10.8145C72.1159 11.1921 72.6074 11.7357 72.9395 12.4453C73.2715 13.1549 73.4375 14.0078 73.4375 15.0039V16.4785H67.0996L67.0801 16.5371C67.1061 17.0449 67.2201 17.4974 67.4219 17.8945C67.6237 18.2852 67.9069 18.5944 68.2715 18.8223C68.6361 19.0501 69.0788 19.1641 69.5996 19.1641C70.153 19.1641 70.6576 19.0924 71.1133 18.9492C71.5755 18.806 72.015 18.5944 72.4316 18.3145L73.1934 19.9648C72.7702 20.3164 72.2331 20.6126 71.582 20.8535C70.931 21.0879 70.1758 21.2051 69.3164 21.2051ZM67.1289 14.6719H70.9375V14.418C70.9375 13.9753 70.8724 13.5911 70.7422 13.2656C70.612 12.9336 70.4102 12.6764 70.1367 12.4941C69.8698 12.3118 69.5215 12.2207 69.0918 12.2207C68.7012 12.2207 68.3659 12.3281 68.0859 12.543C67.806 12.7513 67.5846 13.0378 67.4219 13.4023C67.2591 13.7604 67.1517 14.1673 67.0996 14.623L67.1289 14.6719ZM74.9609 21V19.3984L76.377 19.1055V12.3379L74.8535 12.0449V10.4336H78.8379L78.9551 11.752L78.9746 11.9766C79.2415 11.4102 79.5736 10.9805 79.9707 10.6875C80.3678 10.388 80.8366 10.2383 81.377 10.2383C81.5527 10.2383 81.7415 10.2546 81.9434 10.2871C82.1517 10.3132 82.3275 10.349 82.4707 10.3945L82.168 12.8457L80.7715 12.7676C80.3483 12.748 80 12.8262 79.7266 13.002C79.4596 13.1777 79.2285 13.4284 79.0332 13.7539V19.1055L80.4492 19.3984V21H74.9609Z" fill="#F6F1EB"/>
<path d="M0.625 47V43.7969L2.98438 43.2969V27.9688L0.625 27.4688V24.25H2.98438H8.46875H11.3438V27.4688L8.46875 27.9688V42.7969H13.875L14 39.625H18.1875V47H0.625ZM19.375 47V43.7969L21.3594 43.2969V33.8125L19 33.3125V30.0938H26.8438V43.2969L28.8125 43.7969V47H19.375ZM21.2031 26.8906V22.625H26.8438V26.8906H21.2031ZM29.6875 47V43.7969L31.6562 43.2969V33.8125L29.3125 33.3125V30.0938H36.8438L37.0312 32.4531C37.5938 31.6094 38.2812 30.9531 39.0938 30.4844C39.9167 30.0156 40.849 29.7812 41.8906 29.7812C43.474 29.7812 44.724 30.3177 45.6406 31.3906C46.5573 32.4635 47.0156 34.1667 47.0156 36.5V43.2969L48.9844 43.7969V47H39.9219V43.7969L41.5156 43.2969V36.4844C41.5156 35.5781 41.3333 34.9375 40.9688 34.5625C40.6042 34.1771 40.0833 33.9844 39.4062 33.9844C38.8958 33.9844 38.4583 34.0781 38.0938 34.2656C37.7292 34.4427 37.4115 34.7135 37.1406 35.0781V43.2969L38.5469 43.7969V47H29.6875ZM57.9844 47.3281C56.3073 47.3281 54.8646 46.9583 53.6562 46.2188C52.4479 45.4792 51.5208 44.4635 50.875 43.1719C50.2292 41.8802 49.9062 40.4062 49.9062 38.75V38.3906C49.9062 36.6927 50.2396 35.1979 50.9062 33.9062C51.5833 32.6146 52.5208 31.6042 53.7188 30.875C54.9271 30.1458 56.3333 29.7812 57.9375 29.7812C59.5521 29.7812 60.9323 30.026 62.0781 30.5156C63.2344 31.0052 64.1458 31.5156 64.8125 32.0469L64.7188 37.375H60.6406L59.9844 34.3125C59.8073 34.1354 59.5677 33.9896 59.2656 33.875C58.974 33.7604 58.7292 33.7031 58.5312 33.7031C57.75 33.7031 57.1302 33.875 56.6719 34.2188C56.2135 34.5521 55.8854 35.0625 55.6875 35.75C55.4896 36.4375 55.3906 37.3177 55.3906 38.3906V38.75C55.3906 39.8646 55.5208 40.7448 55.7812 41.3906C56.0521 42.026 56.3906 42.4792 56.7969 42.75C57.2031 43.0208 57.6198 43.1562 58.0469 43.1562C58.7031 43.1562 59.2083 42.9948 59.5625 42.6719C59.9271 42.3385 60.2083 41.8542 60.4062 41.2188H65L65.0625 41.3125C64.8125 42.6562 64.4219 43.776 63.8906 44.6719C63.3594 45.5573 62.6198 46.224 61.6719 46.6719C60.7344 47.1094 59.5052 47.3281 57.9844 47.3281ZM74.9844 47.3281C73.2448 47.3281 71.7552 46.9688 70.5156 46.25C69.2865 45.5208 68.3438 44.5104 67.6875 43.2188C67.0417 41.9167 66.7188 40.4115 66.7188 38.7031V38.3906C66.7188 36.7031 67.0417 35.2135 67.6875 33.9219C68.3438 32.6302 69.2865 31.6198 70.5156 30.8906C71.7448 30.151 73.224 29.7812 74.9531 29.7812C76.6927 29.7812 78.1719 30.1458 79.3906 30.875C80.6198 31.6042 81.5573 32.6146 82.2031 33.9062C82.8594 35.1979 83.1875 36.6927 83.1875 38.3906V38.7031C83.1875 40.401 82.8594 41.901 82.2031 43.2031C81.5573 44.4948 80.6198 45.5052 79.3906 46.2344C78.1719 46.9635 76.7031 47.3281 74.9844 47.3281ZM74.9844 43.1562C75.651 43.1562 76.1823 42.9792 76.5781 42.625C76.9844 42.2604 77.276 41.7448 77.4531 41.0781C77.6406 40.4115 77.7344 39.6198 77.7344 38.7031V38.3906C77.7344 37.5052 77.6406 36.7344 77.4531 36.0781C77.276 35.4115 76.9844 34.8958 76.5781 34.5312C76.1719 34.1562 75.6302 33.9688 74.9531 33.9688C74.2865 33.9688 73.75 34.1562 73.3438 34.5312C72.9375 34.8958 72.6458 35.4115 72.4688 36.0781C72.2917 36.7344 72.2031 37.5052 72.2031 38.3906V38.7031C72.2031 39.6302 72.2917 40.4271 72.4688 41.0938C72.6458 41.7604 72.9375 42.2708 73.3438 42.625C73.75 42.9792 74.2969 43.1562 74.9844 43.1562ZM84.375 47V43.7969L86.375 43.2969V26.3438L84 25.8438V22.625H91.8594V43.2969L93.8438 43.7969V47H84.375ZM94.625 47V43.7969L96.5938 43.2969V33.8125L94.25 33.3125V30.0938H101.781L101.969 32.4531C102.531 31.6094 103.219 30.9531 104.031 30.4844C104.854 30.0156 105.786 29.7812 106.828 29.7812C108.411 29.7812 109.661 30.3177 110.578 31.3906C111.495 32.4635 111.953 34.1667 111.953 36.5V43.2969L113.922 43.7969V47H104.859V43.7969L106.453 43.2969V36.4844C106.453 35.5781 106.271 34.9375 105.906 34.5625C105.542 34.1771 105.021 33.9844 104.344 33.9844C103.833 33.9844 103.396 34.0781 103.031 34.2656C102.667 34.4427 102.349 34.7135 102.078 35.0781V43.2969L103.484 43.7969V47H94.625Z" fill="#F6F1EB"/>
</svg>
