<svg xmlns="http://www.w3.org/2000/svg" width="10" height="17" viewBox="0 0 10 17" fill="none">
  <path d="M4.54887 0.5C5.102 0.5 5.54887 0.946875 5.54887 1.5V2.61562C5.59887 2.62187 5.64575 2.62812 5.69575 2.6375C5.70825 2.64062 5.71762 2.64062 5.73012 2.64375L7.23012 2.91875C7.77387 3.01875 8.13325 3.54063 8.03325 4.08125C7.93325 4.62187 7.41137 4.98438 6.87075 4.88438L5.38637 4.6125C4.40825 4.46875 3.54575 4.56563 2.9395 4.80625C2.33325 5.04688 2.0895 5.37812 2.03325 5.68437C1.97075 6.01875 2.01762 6.20625 2.07075 6.32188C2.127 6.44375 2.24262 6.58125 2.47075 6.73438C2.98012 7.06875 3.76137 7.2875 4.77387 7.55625L4.8645 7.58125C5.75825 7.81875 6.852 8.10625 7.6645 8.6375C8.10825 8.92812 8.527 9.32187 8.78637 9.87187C9.052 10.4312 9.10825 11.0563 8.98637 11.7219C8.77075 12.9094 7.952 13.7031 6.93637 14.1187C6.50825 14.2937 6.04262 14.4062 5.54887 14.4625V15.5C5.54887 16.0531 5.102 16.5 4.54887 16.5C3.99575 16.5 3.54887 16.0531 3.54887 15.5V14.4094C3.53637 14.4062 3.52075 14.4062 3.50825 14.4031H3.502C2.7395 14.2844 1.48637 13.9563 0.642623 13.5813C0.139498 13.3562 -0.0886268 12.7656 0.136373 12.2625C0.361373 11.7594 0.951998 11.5312 1.45512 11.7563C2.10825 12.0469 3.18325 12.3344 3.80512 12.4312C4.802 12.5781 5.62387 12.4937 6.18012 12.2656C6.70825 12.05 6.94887 11.7375 7.01762 11.3625C7.077 11.0312 7.03012 10.8406 6.977 10.725C6.91762 10.6 6.802 10.4625 6.57075 10.3094C6.05825 9.975 5.27387 9.75625 4.25825 9.4875L4.17075 9.46562C3.28012 9.22812 2.18637 8.9375 1.37387 8.40625C0.930123 8.11562 0.514498 7.71875 0.255123 7.16875C-0.0073767 6.60938 -0.0605017 5.98438 0.0644983 5.31875C0.289498 4.125 1.18325 3.35 2.19887 2.94688C2.6145 2.78125 3.07075 2.66875 3.54887 2.60313V1.5C3.54887 0.946875 3.99575 0.5 4.54887 0.5Z" fill="#F6F1EB"/>
</svg>