<svg xmlns="http://www.w3.org/2000/svg" width="14" height="16" viewBox="0 0 14 16" fill="none">
  <g clip-path="url(#clip0_834_1005)">
    <path d="M3 1V2H1.5C0.671875 2 0 2.67188 0 3.5V5H14V3.5C14 2.67188 13.3281 2 12.5 2H11V1C11 0.446875 10.5531 0 10 0C9.44687 0 9 0.446875 9 1V2H5V1C5 0.446875 4.55312 0 4 0C3.44688 0 3 0.446875 3 1ZM14 6H0V14.5C0 15.3281 0.671875 16 1.5 16H12.5C13.3281 16 14 15.3281 14 14.5V6ZM7 7.75C7.41563 7.75 7.75 8.08438 7.75 8.5V10.25H9.5C9.91562 10.25 10.25 10.5844 10.25 11C10.25 11.4156 9.91562 11.75 9.5 11.75H7.75V13.5C7.75 13.9156 7.41563 14.25 7 14.25C6.58437 14.25 6.25 13.9156 6.25 13.5V11.75H4.5C4.08437 11.75 3.75 11.4156 3.75 11C3.75 10.5844 4.08437 10.25 4.5 10.25H6.25V8.5C6.25 8.08438 6.58437 7.75 7 7.75Z" fill="black"/>
  </g>
  <defs>
    <clipPath id="clip0_834_1005">
      <rect width="14" height="16" fill="white"/>
    </clipPath>
  </defs>
</svg>